<svg xmlns="http://www.w3.org/2000/svg" viewBox="0 0 512 512">
  <defs>
    <linearGradient id="bg" x1="48" y1="32" x2="474" y2="492" gradientUnits="userSpaceOnUse">
      <stop stop-color="#6158ee"/>
      <stop offset="0.52" stop-color="#9568ef"/>
      <stop offset="1" stop-color="#f173a3"/>
    </linearGradient>
    <radialGradient id="mintGlow" cx="0" cy="0" r="1" gradientTransform="translate(406 430) rotate(-129) scale(238)" gradientUnits="userSpaceOnUse">
      <stop stop-color="#45d1ad" stop-opacity="0.9"/>
      <stop offset="1" stop-color="#45d1ad" stop-opacity="0"/>
    </radialGradient>
    <linearGradient id="coin" x1="150" y1="116" x2="372" y2="408" gradientUnits="userSpaceOnUse">
      <stop stop-color="#ffe77b"/>
      <stop offset="1" stop-color="#ffc653"/>
    </linearGradient>
    <filter id="shadow" x="76" y="78" width="376" height="388" filterUnits="userSpaceOnUse" color-interpolation-filters="sRGB">
      <feDropShadow dx="0" dy="18" stdDeviation="16" flood-color="#34276e" flood-opacity="0.28"/>
    </filter>
  </defs>

  <rect width="512" height="512" fill="url(#bg)"/>
  <rect width="512" height="512" fill="url(#mintGlow)"/>
  <circle cx="70" cy="78" r="112" fill="#fff" opacity="0.08"/>
  <circle cx="492" cy="76" r="128" fill="#fff" opacity="0.08"/>
  <circle cx="20" cy="470" r="116" fill="#ffcf67" opacity="0.12"/>

  <g fill="none" stroke="#fff" stroke-linecap="round" stroke-linejoin="round">
    <path d="M104 164v-35M86.5 146.5h35" stroke-width="14" opacity="0.95"/>
    <path d="M405 126v-24M393 114h24" stroke-width="10" opacity="0.82"/>
    <path d="M422 354v-30M407 339h30" stroke-width="12" opacity="0.9"/>
    <path d="m115 367 18 13M397 188l-18 13" stroke-width="13" opacity="0.72"/>
  </g>

  <g filter="url(#shadow)">
    <circle cx="256" cy="266" r="166" fill="url(#coin)" stroke="#fff" stroke-width="10" stroke-opacity="0.36"/>
    <circle cx="256" cy="266" r="124" fill="#fff5c9"/>
  </g>

  <path d="M179 166c25-31 62-49 101-45" fill="none" stroke="#fff" stroke-width="18" stroke-linecap="round" opacity="0.62"/>
  <circle cx="185" cy="291" r="20" fill="#ff86a8" opacity="0.55"/>
  <circle cx="327" cy="291" r="20" fill="#ff86a8" opacity="0.55"/>

  <g fill="none" stroke="#6652a8" stroke-width="17" stroke-linecap="round" stroke-linejoin="round">
    <path d="M190 250q28-31 56 0"/>
    <path d="M266 250q28-31 56 0"/>
    <path d="M191 300q65 82 130 0"/>
  </g>
  <path d="M220 322q36 31 72 0" fill="#fff" opacity="0.94"/>

  <g fill="none" stroke="#fff" stroke-width="15" stroke-linecap="round" opacity="0.88">
    <path d="M256 75v-28"/>
    <path d="m133 108-17-23"/>
    <path d="m379 108 17-23"/>
  </g>
</svg>
